<svg id="Layer_1" data-name="Layer 1" xmlns="http://www.w3.org/2000/svg" viewBox="0 0 80.43 80"><defs><style>.cls-1{fill:#17355e;}.cls-2{fill:#fcb832;}</style></defs><title>chat</title><g id="Group"><ellipse id="Oval" class="cls-1" cx="40.21" cy="40" rx="40.21" ry="40"/><g id="comment-regular"><path id="Shape" class="cls-2" d="M40.22,19.2c-13.33,0-24.13,8.65-24.13,19.31a17,17,0,0,0,5,11.73A23.61,23.61,0,0,1,16.7,57a2.2,2.2,0,0,0-.43,2.41,2.27,2.27,0,0,0,2.08,1.35,23.09,23.09,0,0,0,13.11-4.3,29.42,29.42,0,0,0,8.76,1.33c13.32,0,24.12-8.65,24.12-19.32S53.54,19.2,40.22,19.2Zm0,34.17a24.88,24.88,0,0,1-7.39-1.12l-2.14-.67-1.84,1.28a20.1,20.1,0,0,1-5.42,2.69,22.81,22.81,0,0,0,1.88-3.73l1-2.61-1.94-2a12.68,12.68,0,0,1-3.75-8.68c0-8.19,8.79-14.85,19.6-14.85s19.6,6.66,19.6,14.85S51,53.37,40.22,53.37Z"/></g></g></svg>