<svg id="Layer_1" data-name="Layer 1" xmlns="http://www.w3.org/2000/svg" xmlns:xlink="http://www.w3.org/1999/xlink" viewBox="0 0 245 97.7"><defs><style>.cls-1{fill:none;}.cls-2{clip-path:url(#clip-path);}.cls-3{fill:#fff;}.cls-4{clip-path:url(#clip-path-2);}</style><clipPath id="clip-path"><rect class="cls-1" y="0.06" width="245" height="96.87"/></clipPath><clipPath id="clip-path-2"><rect class="cls-1" y="0.06" width="245" height="96.87"/></clipPath></defs><title>logo-negative</title><g class="cls-2"><path class="cls-3" d="M7.91,96.84C2.48,96.84,0,92.94,0,89.07a8,8,0,0,1,2.2-5.76,7.82,7.82,0,0,1,5.71-2.19,7.82,7.82,0,0,1,5.59,2.31l.32.31-1.4,1.2-.27-.27a6,6,0,0,0-4.24-1.73,5.93,5.93,0,0,0-4.34,1.63A6.18,6.18,0,0,0,1.91,89c0,2.75,1.62,6,6,6a6.08,6.08,0,0,0,4.26-1.74l.29-.27,1.34,1.27-.3.3a7.82,7.82,0,0,1-5.59,2.3"/></g><g class="cls-4"><path class="cls-3" d="M25.47,96.93c-5.33,0-7.76-4.13-7.76-8s2.4-7.9,7.76-7.9A7.6,7.6,0,0,1,31,83.18,8.06,8.06,0,0,1,33.23,89c0,3.82-2.46,7.93-7.76,7.93m-5.83-8c0,2.93,1.85,6.08,5.83,6.08s5.86-3.15,5.86-6.08-1.82-6.06-5.86-6.06a5.73,5.73,0,0,0-4.17,1.57A6.25,6.25,0,0,0,19.64,89Z"/><polygon class="cls-3" points="52.63 96.68 50.7 96.68 50.7 84.7 45.76 92.26 44.94 92.26 39.95 84.69 39.95 96.68 38.01 96.68 38.01 81.29 39.98 81.29 45.33 89.44 50.62 81.29 52.63 81.29 52.63 96.68"/><polygon class="cls-3" points="72.57 96.68 70.64 96.68 70.64 84.7 65.7 92.26 64.88 92.26 59.89 84.69 59.89 96.68 57.95 96.68 57.95 81.29 59.91 81.29 65.27 89.44 70.56 81.29 72.57 81.29 72.57 96.68"/><path class="cls-3" d="M83.85,96.88a5.81,5.81,0,0,1-6-6.13V81.29h1.92v9.46A4.26,4.26,0,0,0,81.06,94,4.07,4.07,0,0,0,83.85,95a4,4,0,0,0,4.07-4.28V81.29h1.93v9.46a5.87,5.87,0,0,1-6,6.13"/><polygon class="cls-3" points="107.23 96.68 106.18 96.68 96.97 85.39 96.97 96.68 95.02 96.68 95.02 81.29 96.11 81.29 105.3 92.59 105.3 81.29 107.23 81.29 107.23 96.68"/><rect class="cls-3" x="112.59" y="81.28" width="1.93" height="15.39"/><path class="cls-3" d="M126.94,96.84c-5.43,0-7.88-3.9-7.9-7.77a8,8,0,0,1,2.2-5.76,8.22,8.22,0,0,1,11.3.12l.32.31-1.4,1.2-.27-.27a6,6,0,0,0-4.25-1.73,5.91,5.91,0,0,0-4.33,1.63A6.19,6.19,0,0,0,120.94,89c0,2.75,1.63,6,6,6a6.09,6.09,0,0,0,4.27-1.74l.29-.27,1.34,1.27-.3.3a7.84,7.84,0,0,1-5.6,2.3"/><path class="cls-3" d="M150.58,96.68h-2.11l-1.6-3.58H138.7l-1.58,3.58H135l6.9-15.4h1.76ZM139.5,91.23h6.56l-3.28-7.43Z"/><polygon class="cls-3" points="158.01 96.68 156.07 96.68 156.07 83.13 150.8 83.13 150.8 81.31 163.28 81.31 163.28 83.13 158.01 83.13 158.01 96.68"/><rect class="cls-3" x="167.52" y="81.28" width="1.93" height="15.39"/><path class="cls-3" d="M182.31,96.93c-5.33,0-7.76-4.13-7.76-8s2.4-7.9,7.76-7.9a7.62,7.62,0,0,1,5.55,2.12A8.14,8.14,0,0,1,190.07,89c0,3.82-2.46,7.93-7.76,7.93m-5.83-8c0,2.93,1.85,6.08,5.83,6.08s5.85-3.15,5.85-6.08-1.81-6.06-5.85-6.06a5.7,5.7,0,0,0-4.17,1.57A6.23,6.23,0,0,0,176.48,89Z"/><polygon class="cls-3" points="207.05 96.68 206.01 96.68 196.79 85.39 196.79 96.68 194.84 96.68 194.84 81.29 195.93 81.29 205.13 92.59 205.13 81.29 207.05 81.29 207.05 96.68"/><path class="cls-3" d="M218.07,96.91c-2.24,0-5.08-.89-6.34-3.39l-.19-.37,1.73-.87.19.37a5.34,5.34,0,0,0,4.61,2.41c1.27,0,4.23-.26,4.23-2.66,0-1.74-1.75-2.21-4.46-2.72s-5.72-1.12-5.72-4.15a3.71,3.71,0,0,1,1.06-2.78,7,7,0,0,1,4.89-1.67c2.33,0,4.19.45,5.67,2.66l.24.36-1.64,1-.21-.34c-.95-1.54-2.52-1.77-4.07-1.79-.4,0-4,.07-4,2.54,0,1.47,1.56,1.87,4.13,2.35l.16,0c2.76.53,5.9,1.13,5.9,4.56,0,2.81-2.33,4.49-6.18,4.49"/><polygon class="cls-3" points="34.22 23.44 34.22 31.79 9.9 31.79 9.9 44.39 32.91 44.39 32.91 52.45 9.9 52.45 9.9 73.48 0.37 73.48 0.37 23.44 34.22 23.44"/><path class="cls-3" d="M59.86,47.69A10.09,10.09,0,0,0,56.27,47c-5.34,0-9.67,5.35-9.67,13V73.48H37.52V39.41h9V45h.15c2-4,5-6.37,9.37-6.37a9.44,9.44,0,0,1,3.81.8Z"/><path class="cls-3" d="M236.94,47.69a10.18,10.18,0,0,0-3.59-.73c-5.35,0-9.67,5.35-9.67,13V73.48h-9.09V39.41h9V45h.15c2.05-4,5-6.37,9.38-6.37a9.48,9.48,0,0,1,3.81.8Z"/><path class="cls-3" d="M97.89,56.48c0,8.94-7.11,17.81-18.83,17.81-11.43,0-18.61-8.36-18.61-17.73,0-10.7,8.94-18,18.24-18,12.6,0,19.2,9.15,19.2,17.87m-27.7-.07c0,6.08,4.55,9.82,9.16,9.82,5.28,0,8.79-5,8.79-9.67,0-5-3.66-9.89-8.71-9.89-5.28,0-9.24,4.17-9.24,9.74"/><path class="cls-3" d="M132.69,73.48H123.6V53.7c0-3.52-1-6.3-5-6.3-5.5,0-8.72,5.71-8.72,12.23V73.48h-9.09V39.41h9.08v5.35c1.47-2.2,4.18-6.15,10.77-6.15,8.21,0,12,5.64,12,12.67Z"/><rect class="cls-3" x="163.16" y="39.41" width="9.08" height="34.07"/><path class="cls-3" d="M210.12,57.66h-25.2A11.61,11.61,0,0,0,187,62.05a10.93,10.93,0,0,0,8.28,3.88c5,0,9.53-2.56,13.48-5.64V69.6c-3,1.61-8.64,4.69-14.94,4.69-10.85,0-18.39-8.28-18.39-17.73a17.88,17.88,0,0,1,17.73-18c10.26,0,16.92,7.32,16.92,17.65Zm-9.82-6.23a7,7,0,0,0-6.88-6,8.18,8.18,0,0,0-7.69,6Z"/><path class="cls-3" d="M148.77,29.23V39.49h9.53V46.3h-9.24V61.17c0,3.81,2.05,4.76,4.4,4.76a12.36,12.36,0,0,0,4.84-1.17v8.06A32,32,0,0,1,150,74c-6.16,0-10-3.15-10-9.74v-18h-5.64V39.49H140V29.19h8.79"/><path class="cls-3" d="M156.76,19.21a4.34,4.34,0,1,1-4.34-4.33,4.34,4.34,0,0,1,4.34,4.33"/><path class="cls-3" d="M140.9,10.89a3.65,3.65,0,1,1-3.64-3.65,3.65,3.65,0,0,1,3.64,3.65"/><path class="cls-3" d="M125.74,5.65a3.42,3.42,0,1,1-3.42-3.43,3.42,3.42,0,0,1,3.42,3.43"/><path class="cls-3" d="M109.55,3a3,3,0,1,1-3-3,3,3,0,0,1,3,3"/><path class="cls-3" d="M93.13,3A2.51,2.51,0,1,1,90.63.51,2.51,2.51,0,0,1,93.13,3"/><path class="cls-3" d="M77.22,5.07A2.22,2.22,0,1,1,75,2.85a2.21,2.21,0,0,1,2.21,2.22"/><path class="cls-3" d="M61.61,10.77a1.54,1.54,0,1,1-1.54-1.53,1.54,1.54,0,0,1,1.54,1.53"/><path class="cls-3" d="M48.72,19.39a1,1,0,1,1-1-1,1,1,0,0,1,1,1"/><path class="cls-3" d="M41,29a.72.72,0,1,1-.72-.72A.72.72,0,0,1,41,29"/><path class="cls-3" d="M172.08,30.81a4.84,4.84,0,1,1-5-4.91c1.66,0,5,1.4,5,4.91"/></g><g class="cls-2"><polygon class="cls-3" points="238.27 39.78 238.27 39.4 241.04 39.4 241.04 39.78 239.87 39.78 239.87 42.83 239.44 42.83 239.44 39.78 238.27 39.78"/><polygon class="cls-3" points="243.33 41.75 243.24 41.75 242 40 242 42.83 241.58 42.83 241.58 39.4 242.09 39.4 243.29 41.16 244.49 39.4 245 39.4 245 42.83 244.58 42.83 244.58 40.01 243.33 41.75"/></g></svg>