<?xml version="1.0" encoding="utf-8"?>
<!-- Generator: Adobe Illustrator 22.1.0, SVG Export Plug-In . SVG Version: 6.00 Build 0)  -->
<svg version="1.1" id="Layer_1" xmlns="http://www.w3.org/2000/svg" xmlns:xlink="http://www.w3.org/1999/xlink" x="0px" y="0px"
	 viewBox="0 0 245 97.7" style="enable-background:new 0 0 245 97.7;" xml:space="preserve">
<style type="text/css">
	.st0{fill:#D9272D;}
	.st1{fill:#58595B;}
</style>
<g>
	<polygon class="st0" points="0,24 0,74.6 9.6,74.6 9.6,53.4 32.9,53.4 32.9,45.2 9.6,45.2 9.6,32.5 34.2,32.5 34.2,24 	"/>
	<g>
		<path class="st0" d="M60.1,48.6c-1.3-0.4-2.3-0.7-3.6-0.7c-5.4,0-9.8,5.4-9.8,13.2v13.6h-9.2V40.2h9.1v5.6h0.1
			c2.1-4.1,5-6.4,9.5-6.4c1.6,0,2.7,0.4,3.9,0.8V48.6z"/>
		<path class="st0" d="M239.1,48.6c-1.3-0.4-2.3-0.7-3.6-0.7c-5.4,0-9.8,5.4-9.8,13.2v13.6h-9.2V40.2h9.1v5.6h0.1
			c2.1-4.1,5-6.4,9.5-6.4c1.6,0,2.7,0.4,3.9,0.8V48.6z"/>
		<path class="st0" d="M98.6,57.4c0,9-7.2,18-19,18C68,75.4,60.7,67,60.7,57.5c0-10.8,9-18.1,18.4-18.1
			C91.9,39.4,98.6,48.6,98.6,57.4 M70.6,57.4c0,6.1,4.6,9.9,9.3,9.9c5.3,0,8.9-5,8.9-9.8c0-5-3.7-10-8.8-10
			C74.6,47.5,70.6,51.7,70.6,57.4"/>
		<path class="st0" d="M133.7,74.6h-9.2v-20c0-3.6-1-6.4-5-6.4c-5.6,0-8.8,5.8-8.8,12.4v14h-9.2V40.2h9.2l0,5.4
			c1.5-2.2,4.2-6.2,10.9-6.2c8.3,0,12.1,5.7,12.1,12.8V74.6z"/>
		<rect x="164.6" y="40.2" class="st0" width="9.2" height="34.4"/>
		<path class="st0" d="M212,58.6h-25.5c0.5,1.7,1,3,2.1,4.4c2.2,2.7,5.5,3.9,8.4,3.9c5,0,9.6-2.6,13.6-5.7v9.4
			c-3,1.6-8.7,4.7-15.1,4.7c-11,0-18.6-8.4-18.6-17.9c0-9.6,7.7-18.1,17.9-18.1c10.4,0,17.1,7.4,17.1,17.8V58.6z M202.1,52.3
			c-0.6-3.9-4-6.1-7-6.1c-0.7,0-5.9,0.2-7.8,6.1H202.1z"/>
		<path class="st0" d="M150,29.9v10.4h9.6v6.9h-9.3v15c0,3.9,2.1,4.8,4.4,4.8c1.9,0,3.5-0.6,4.9-1.2V74c-2.7,0.7-5.6,1.2-8.4,1.2
			c-6.2,0-10.1-3.2-10.1-9.9V47.2h-5.7v-6.9h5.7V29.9L150,29.9"/>
		<path class="st0" d="M158.4,19.4c0,2.4-2,4.4-4.4,4.4c-2.4,0-4.4-2-4.4-4.4c0-2.4,2-4.4,4.4-4.4C156.5,15,158.4,16.9,158.4,19.4"
			/>
		<path class="st0" d="M142.4,11c0,2-1.7,3.7-3.7,3.7c-2,0-3.7-1.7-3.7-3.7c0-2,1.6-3.7,3.7-3.7C140.7,7.3,142.4,8.9,142.4,11"/>
		<path class="st0" d="M127.1,5.6c0,1.9-1.5,3.5-3.5,3.5c-1.9,0-3.5-1.5-3.5-3.5c0-1.9,1.5-3.5,3.5-3.5
			C125.5,2.2,127.1,3.7,127.1,5.6"/>
		<path class="st0" d="M110.7,3c0,1.7-1.3,3-3,3c-1.7,0-3-1.3-3-3c0-1.7,1.3-3,3-3C109.4,0,110.7,1.3,110.7,3"/>
		<path class="st0" d="M94.1,3c0,1.4-1.1,2.5-2.5,2.5C90.2,5.5,89,4.4,89,3c0-1.4,1.1-2.5,2.5-2.5C93,0.5,94.1,1.6,94.1,3"/>
		<path class="st0" d="M78,5.1c0,1.2-1,2.2-2.2,2.2c-1.2,0-2.2-1-2.2-2.2c0-1.2,1-2.2,2.2-2.2C77,2.8,78,3.8,78,5.1"/>
		<path class="st0" d="M62.2,10.8c0,0.9-0.7,1.6-1.6,1.6c-0.9,0-1.6-0.7-1.6-1.6c0-0.9,0.7-1.6,1.6-1.6C61.5,9.3,62.2,10,62.2,10.8"
			/>
		<path class="st0" d="M49.2,19.5c0,0.5-0.4,1-1,1c-0.5,0-1-0.4-1-1c0-0.5,0.4-1,1-1C48.8,18.6,49.2,19,49.2,19.5"/>
		<path class="st0" d="M41.4,29.2c0,0.4-0.3,0.7-0.7,0.7c-0.4,0-0.7-0.3-0.7-0.7c0-0.4,0.3-0.7,0.7-0.7
			C41.1,28.5,41.4,28.8,41.4,29.2"/>
		<path class="st0" d="M173.9,31.1c0,2.7-2.2,4.8-4.9,4.8c-2.8,0-4.9-2.3-4.9-4.9c0-2.9,2.4-4.9,4.7-4.9
			C170.5,26.1,173.9,27.5,173.9,31.1"/>
		<path class="st1" d="M13.7,95.4c-1.5,1.5-3.5,2.2-5.7,2.2c-5.4,0-7.9-3.8-7.9-7.7C0.1,86,2.6,82,8,82c2,0,4,0.7,5.5,2.3l-1.6,1.6
			c-1.1-1.1-2.5-1.6-3.9-1.6c-3.9,0-5.6,2.8-5.6,5.6c0,2.8,1.7,5.5,5.6,5.5c1.4,0,2.9-0.6,4-1.6L13.7,95.4z"/>
		<path class="st1" d="M31.7,89.9c0,4.1-2.5,7.8-7.7,7.8c-5.2,0-7.7-3.8-7.7-7.8c0-4.6,3.2-7.9,7.7-7.9C29.2,82,31.7,85.8,31.7,89.9
			 M24,95.5c3.7,0,5.3-2.7,5.3-5.5c0-2.8-1.6-5.7-5.3-5.7c-3.5,0-5.4,2.4-5.4,5.7C18.8,92.6,20.3,95.5,24,95.5"/>
		<polygon class="st1" points="49.3,85.8 44.2,92.9 43.7,92.9 38.6,85.8 38.6,97.4 36.2,97.4 36.2,82.3 39,82.3 44,89.4 48.9,82.3 
			51.7,82.3 51.7,97.4 49.3,97.4 		"/>
	</g>
	<g>
		<polygon class="st1" points="70.2,85.8 65.1,92.9 64.6,92.9 59.5,85.8 59.5,97.4 57.1,97.4 57.1,82.3 59.9,82.3 64.9,89.4 
			69.8,82.3 72.6,82.3 72.6,97.4 70.2,97.4 		"/>
		<path class="st1" d="M90.6,82.3v8.8c0,4.4-2.9,6.6-6.6,6.5c-3.4-0.1-6.2-2.3-6.2-6.5v-8.8h2.4v8.8c0,2.7,1.6,4.2,3.8,4.3
			c2.4,0.1,4.2-1.4,4.2-4.3v-8.8H90.6z"/>
	</g>
	<g>
		<polygon class="st1" points="106.2,93 106.2,82.3 108.6,82.3 108.6,97.3 106.8,97.3 98.2,86.7 98.2,97.3 95.8,97.3 95.8,82.3 
			97.6,82.3 		"/>
		<rect x="113.9" y="82.3" class="st1" width="2.4" height="15.1"/>
		<path class="st1" d="M134.4,95.4c-1.5,1.5-3.5,2.2-5.7,2.2c-5.4,0-7.9-3.8-7.9-7.7c0-4,2.5-7.9,7.9-7.9c2,0,4,0.7,5.5,2.3
			l-1.6,1.6c-1.1-1.1-2.5-1.6-3.9-1.6c-3.9,0-5.6,2.8-5.6,5.6c0,2.8,1.7,5.5,5.6,5.5c1.4,0,2.9-0.6,4-1.6L134.4,95.4z"/>
		<path class="st1" d="M149.2,94.2H141l-1.4,3.2H137l6.8-15.1h2.6l6.8,15.1h-2.6L149.2,94.2z M145.1,84.8l-3.2,7.2h6.4L145.1,84.8z"
			/>
		<polygon class="st1" points="158.4,84.5 153.5,84.5 153.5,82.3 165.8,82.3 165.8,84.5 160.9,84.5 160.9,97.3 158.4,97.3 		"/>
		<rect x="169.5" y="82.3" class="st1" width="2.4" height="15.1"/>
		<path class="st1" d="M191.8,89.9c0,4.1-2.5,7.8-7.7,7.8c-5.2,0-7.7-3.8-7.7-7.8c0-4.6,3.2-7.9,7.7-7.9
			C189.2,82,191.8,85.8,191.8,89.9 M184.1,95.5c3.7,0,5.3-2.7,5.3-5.5c0-2.8-1.6-5.7-5.3-5.7c-3.5,0-5.4,2.4-5.4,5.7
			C178.8,92.6,180.3,95.5,184.1,95.5"/>
		<polygon class="st1" points="206.7,93 206.7,82.3 209.1,82.3 209.1,97.3 207.2,97.3 198.7,86.7 198.7,97.3 196.3,97.3 196.3,82.3 
			198.1,82.3 		"/>
	</g>
	<g>
		<path class="st1" d="M223.4,85.7c-0.7-1-2.2-1.7-3.7-1.7c-2,0-3.5,0.8-3.5,2.2c0,1.5,1.7,1.9,3.7,2.2c3.1,0.5,6,1.3,6,4.6
			c0,3.4-3.1,4.6-6.2,4.6c-2.9,0-5.1-0.9-6.5-3.4L215,93c1.1,1.8,2.9,2.5,4.7,2.5c1.8,0,3.8-0.6,3.8-2.5c0-1.6-1.7-2.2-3.9-2.4
			c-3-0.4-5.8-1.2-5.8-4.4c0.1-2.9,3.1-4.2,5.8-4.2c2.2,0,4.3,0.5,5.6,2.5L223.4,85.7z"/>
		<path class="st0" d="M240.1,40.6v-0.5h2.1v0.5h-0.8v1.9h-0.5v-1.9H240.1z M243,40.2l0.7,1l0.7-1h0.5v2.4h-0.5l0-1.6l-0.7,1h-0.1
			l-0.7-1l0,1.6h-0.5v-2.4H243z"/>
	</g>
</g>
</svg>
