<svg id="Layer_1" data-name="Layer 1" xmlns="http://www.w3.org/2000/svg" viewBox="0 0 80.43 80"><defs><style>.cls-1{fill:#17355e;}.cls-2{isolation:isolate;}.cls-3{fill:#fcb832;}</style></defs><title>help</title><circle class="cls-1" cx="40" cy="39.92" r="40"/><g class="cls-2"><g class="cls-2"><path class="cls-3" d="M27.7,33.22a9.63,9.63,0,0,1,1.13-4.8,10,10,0,0,1,3-3.3,12.54,12.54,0,0,1,4.28-1.9,20.56,20.56,0,0,1,5-.6,21.44,21.44,0,0,1,5,.58A13.2,13.2,0,0,1,50.38,25a9,9,0,0,1,4.07,8.1,8.17,8.17,0,0,1-1,4.28,8.93,8.93,0,0,1-2.37,2.65,12.92,12.92,0,0,1-3,1.62,18.4,18.4,0,0,0-2.65,1.25,6.53,6.53,0,0,0-1.42.88,3.57,3.57,0,0,0-.93,1.12,4.79,4.79,0,0,0-.48,1.55,16.59,16.59,0,0,0-.12,2.15l-5.55,0a16.91,16.91,0,0,1,.45-4.25,8.17,8.17,0,0,1,1.28-2.82,7.09,7.09,0,0,1,1.92-1.83,15.18,15.18,0,0,1,2.45-1.25c.67-.3,1.33-.58,2-.85a8.56,8.56,0,0,0,1.8-1,4.81,4.81,0,0,0,1.3-1.4,4.09,4.09,0,0,0,.5-2.13A5,5,0,0,0,48,30.3a5.06,5.06,0,0,0-1.83-1.7,7.54,7.54,0,0,0-2.5-.85A16.74,16.74,0,0,0,41,27.52a11.56,11.56,0,0,0-2.72.33,8,8,0,0,0-2.5,1,6,6,0,0,0-1.85,1.78,4.42,4.42,0,0,0-.73,2.57Zm8.6,21.45a3.14,3.14,0,0,1,1.1-2.62,3.71,3.71,0,0,1,4.8,0,3.14,3.14,0,0,1,1.1,2.62,3.09,3.09,0,0,1-1.1,2.6,3.81,3.81,0,0,1-4.8,0A3.09,3.09,0,0,1,36.3,54.67Z"/></g></g></svg>